<svg width="20" height="11" viewBox="0 0 20 11" fill="none" xmlns="http://www.w3.org/2000/svg">
<path d="M1.35545 0.380515C1.23905 0.496629 1.14669 0.634568 1.08367 0.786431C1.02066 0.938294 0.98822 1.1011 0.98822 1.26552C0.98822 1.42993 1.02066 1.59274 1.08367 1.7446C1.14669 1.89646 1.23905 2.0344 1.35545 2.15052L9.66545 10.4605C9.75797 10.5532 9.86786 10.6268 9.98883 10.6769C10.1098 10.7271 10.2395 10.753 10.3705 10.753C10.5014 10.753 10.6311 10.7271 10.7521 10.6769C10.8731 10.6268 10.9829 10.5532 11.0755 10.4605L19.3855 2.15052C19.8755 1.66052 19.8755 0.870515 19.3855 0.380515C18.8955 -0.109485 18.1055 -0.109485 17.6155 0.380515L10.3655 7.62052L3.11545 0.370517C2.63545 -0.109483 1.83545 -0.109485 1.35545 0.380515Z" fill="#B3B3B3"/>
</svg>
