<?xml version="1.0" encoding="UTF-8" standalone="no"?>
<!DOCTYPE svg PUBLIC "-//W3C//DTD SVG 1.1//EN" "http://www.w3.org/Graphics/SVG/1.1/DTD/svg11.dtd">
<svg width="100%" height="100%" viewBox="0 0 1456 1456" version="1.1" xmlns="http://www.w3.org/2000/svg" xmlns:xlink="http://www.w3.org/1999/xlink" xml:space="preserve" xmlns:serif="http://www.serif.com/" style="fill-rule:evenodd;clip-rule:evenodd;stroke-linejoin:round;stroke-miterlimit:2;">
    <g transform="matrix(1,0,0,1,0,-57)">
        <path d="M728,57C1129.79,57 1456,383.206 1456,785C1456,1186.79 1129.79,1513 728,1513C326.206,1513 0,1186.79 0,785C0,383.206 326.206,57 728,57ZM728,246.28C1025.33,246.28 1266.72,487.672 1266.72,785C1266.72,1082.33 1025.33,1323.72 728,1323.72C430.672,1323.72 189.28,1082.33 189.28,785C189.28,487.672 430.672,246.28 728,246.28Z"/>
        <g transform="matrix(6.12323e-17,1,-1,6.12323e-17,1513,57)">
            <path d="M1456,785C1456,382.937 1130.06,57 728,57C325.937,57 -0,382.937 0,785L728,785L1456,785Z"/>
        </g>
    </g>
</svg>
