<?xml version="1.0" encoding="UTF-8" standalone="no"?>
<!DOCTYPE svg PUBLIC "-//W3C//DTD SVG 1.1//EN" "http://www.w3.org/Graphics/SVG/1.1/DTD/svg11.dtd">
<svg width="100%" height="100%" viewBox="0 0 583 519" version="1.1" xmlns="http://www.w3.org/2000/svg" xmlns:xlink="http://www.w3.org/1999/xlink" xml:space="preserve" xmlns:serif="http://www.serif.com/" style="fill-rule:evenodd;clip-rule:evenodd;stroke-linejoin:round;stroke-miterlimit:2;">
    <g transform="matrix(1,0,0,1,-1075.17,-280.758)">
        <g transform="matrix(1.01366,0,0,1.01819,-26.2218,-19.6424)">
            <g transform="matrix(1.37245,0,0,1.36635,783.757,30.0992)">
                <g transform="matrix(2,0,0,2,0,0)">
                    <path d="M295.016,209.483L226.817,170.109L226.817,111.033L295.016,150.407L295.016,209.483Z" style="fill:rgb(242,112,110);fill-rule:nonzero;"/>
                </g>
                <g transform="matrix(2,0,0,2,0,0)">
                    <path d="M230.661,167.458L290.635,202.084L290.635,151.982L230.661,117.356L230.661,167.458ZM291.943,204.351L229.353,168.213L229.353,115.09L291.943,151.226L291.943,204.351Z" style="fill:rgb(215,84,84);fill-rule:nonzero;"/>
                </g>
                <g transform="matrix(2,0,0,2,0,0)">
                    <path d="M319.771,136.115L295.016,150.407L295.016,209.483L319.771,195.191L319.771,136.115Z" style="fill:rgb(229,97,97);fill-rule:nonzero;"/>
                </g>
                <g transform="matrix(2,0,0,2,0,0)">
                    <path d="M306.371,143.851L306.371,202.927L308.898,201.468L308.898,142.392L306.371,143.851Z" style="fill:rgb(215,84,84);fill-rule:nonzero;"/>
                </g>
                <g transform="matrix(2,0,0,2,0,0)">
                    <path d="M226.817,111.033L295.016,150.407L319.771,136.115L251.73,96.95L226.817,111.033Z" style="fill:rgb(245,139,140);fill-rule:nonzero;"/>
                </g>
                <g transform="matrix(2,0,0,2,0,0)">
                    <path d="M238.63,104.367L306.719,143.679L309.103,142.278L241.008,103.08L238.63,104.367Z" style="fill:rgb(229,97,97);fill-rule:nonzero;"/>
                </g>
                <g transform="matrix(2,0,0,2,0,0)">
                    <path d="M261.612,158.933L258.118,156.916L258.118,138.952L261.612,140.969L261.612,158.933Z" style="fill:white;fill-rule:nonzero;"/>
                </g>
                <g transform="matrix(2,0,0,2,0,0)">
                    <path d="M253.13,147.383L253.13,142.724L266.602,150.502L266.602,155.161L253.13,147.383Z" style="fill:white;fill-rule:nonzero;"/>
                </g>
                <g transform="matrix(2,0,0,2,0,0)">
                    <path d="M236.992,153.34L241.77,156.099L241.77,158.014L238.708,156.248L238.708,158.58L241.316,160.086L241.316,162.002L238.708,160.496L238.708,164.404L236.992,163.413L236.992,153.34Z" style="fill:white;fill-rule:nonzero;"/>
                </g>
                <g transform="matrix(2,0,0,2,0,0)">
                    <path d="M243.055,156.841L244.771,157.831L244.771,167.904L243.055,166.913L243.055,156.841Z" style="fill:white;fill-rule:nonzero;"/>
                </g>
                <g transform="matrix(2,0,0,2,0,0)">
                    <path d="M248.248,164.474L249.118,164.976C250.011,165.491 250.498,165.263 250.498,164.274C250.498,163.286 250.011,162.664 249.118,162.149L248.248,161.647L248.248,164.474ZM250.625,171.284L249.176,166.817L248.248,166.282L248.248,169.911L246.532,168.92L246.532,158.849L249.256,160.421C250.856,161.346 252.179,162.851 252.179,165.244C252.179,166.728 251.634,167.355 250.834,167.372L252.538,172.388L250.625,171.284Z" style="fill:white;fill-rule:nonzero;"/>
                </g>
                <g transform="matrix(2,0,0,2,0,0)">
                    <path d="M253.997,170.403C254.53,171.329 255.226,172.164 255.853,172.524C256.56,172.934 256.907,172.764 256.907,172.161C256.907,171.527 256.479,171.079 255.817,170.328L254.843,169.208C254.056,168.336 253.313,167.043 253.313,165.575C253.313,163.907 254.438,163.228 256.002,164.131C256.872,164.634 257.788,165.625 258.437,166.865L257.579,167.807C257.082,167.009 256.605,166.442 256.002,166.093C255.424,165.758 255.041,165.878 255.041,166.449C255.041,167.067 255.54,167.57 256.2,168.309L257.161,169.389C258.078,170.412 258.659,171.565 258.659,172.987C258.659,174.656 257.614,175.504 255.817,174.467C254.833,173.898 253.788,172.801 253.012,171.395L253.997,170.403Z" style="fill:white;fill-rule:nonzero;"/>
                </g>
                <g transform="matrix(2,0,0,2,0,0)">
                    <path d="M261.173,169.218L259.086,168.012L259.086,166.096L264.953,169.483L264.953,171.399L262.878,170.202L262.878,178.357L261.173,177.374L261.173,169.218Z" style="fill:white;fill-rule:nonzero;"/>
                </g>
                <g transform="matrix(2,0,0,2,0,0)">
                    <path d="M271.745,179.306L271.56,178.273C271.353,177.148 271.154,175.845 270.945,174.673L270.898,174.647C270.726,175.612 270.516,176.667 270.308,177.549L270.122,178.37L271.745,179.306ZM272.094,181.284L269.773,179.944L269.311,182.071L267.571,181.067L269.948,172.368L271.988,173.546L274.366,184.991L272.557,183.946L272.094,181.284Z" style="fill:white;fill-rule:nonzero;"/>
                </g>
                <g transform="matrix(2,0,0,2,0,0)">
                    <path d="M275.152,175.373L276.868,176.364L276.868,186.435L275.152,185.444L275.152,175.373Z" style="fill:white;fill-rule:nonzero;"/>
                </g>
                <g transform="matrix(2,0,0,2,0,0)">
                    <path d="M280.671,186.792C281.947,187.528 282.815,187.196 282.815,184.787C282.815,182.377 281.947,181.134 280.671,180.397L280.346,180.21L280.346,186.605L280.671,186.792ZM278.63,177.381L280.764,178.613C283.083,179.952 284.566,182.337 284.566,185.798C284.566,189.257 283.083,190.023 280.868,188.745L278.63,187.452L278.63,177.381Z" style="fill:white;fill-rule:nonzero;"/>
                </g>
                <g transform="matrix(2,0,0,2,0,0)">
                    <path d="M292.508,140.593L305.725,132.962L300.477,129.933L287.259,137.563L292.508,140.593Z" style="fill:rgb(71,58,71);fill-rule:nonzero;"/>
                </g>
                <g transform="matrix(2,0,0,2,0,0)">
                    <path d="M291.106,137.784L301.057,131.987L299.834,131.282L289.883,137.078L291.106,137.784Z" style="fill:white;fill-rule:nonzero;"/>
                </g>
                <g transform="matrix(2,0,0,2,0,0)">
                    <path d="M293.297,139.02L303.248,133.223L302.024,132.517L292.073,138.313L293.297,139.02Z" style="fill:white;fill-rule:nonzero;"/>
                </g>
                <g transform="matrix(2,0,0,2,0,0)">
                    <path d="M292.508,140.593L292.508,142.278L305.725,134.647L305.725,132.962L292.508,140.593Z" style="fill:rgb(42,31,40);fill-rule:nonzero;"/>
                </g>
                <g transform="matrix(2,0,0,2,0,0)">
                    <path d="M287.259,137.563L287.259,139.248L292.508,142.278L292.508,140.593L287.259,137.563Z" style="fill:rgb(58,46,56);fill-rule:nonzero;"/>
                </g>
                <g transform="matrix(2,0,0,2,0,0)">
                    <path d="M246.111,113.741L259.328,106.11L254.08,103.08L240.863,110.711L246.111,113.741Z" style="fill:rgb(71,58,71);fill-rule:nonzero;"/>
                </g>
                <g transform="matrix(2,0,0,2,0,0)">
                    <path d="M244.71,110.931L254.661,105.135L253.438,104.429L243.487,110.226L244.71,110.931Z" style="fill:white;fill-rule:nonzero;"/>
                </g>
                <g transform="matrix(2,0,0,2,0,0)">
                    <path d="M246.9,112.167L256.851,106.371L255.629,105.665L245.678,111.461L246.9,112.167Z" style="fill:white;fill-rule:nonzero;"/>
                </g>
                <g transform="matrix(2,0,0,2,0,0)">
                    <path d="M246.111,113.741L246.111,115.426L259.328,107.795L259.328,106.11L246.111,113.741Z" style="fill:rgb(42,31,40);fill-rule:nonzero;"/>
                </g>
                <g transform="matrix(2,0,0,2,0,0)">
                    <path d="M240.863,110.711L240.863,112.396L246.111,115.426L246.111,113.741L240.863,110.711Z" style="fill:rgb(58,46,56);fill-rule:nonzero;"/>
                </g>
                <g transform="matrix(2,0,0,2,0,0)">
                    <path d="M261.148,281.409L215.971,255.325C211.13,252.53 211.743,247.603 217.333,244.375L241.718,230.297C247.308,227.069 255.842,226.715 260.683,229.511L305.862,255.595C310.703,258.391 310.09,263.316 304.5,266.544L280.115,280.623C274.525,283.851 265.991,284.204 261.148,281.409Z" style="fill:rgb(215,84,84);fill-rule:nonzero;"/>
                </g>
                <g transform="matrix(2,0,0,2,0,0)">
                    <path d="M261.148,279.219L215.971,253.135C211.13,250.34 211.743,245.412 217.333,242.185L241.718,228.106C247.308,224.878 255.842,224.525 260.683,227.319L305.862,253.404C310.703,256.199 310.09,261.126 304.5,264.354L280.115,278.433C274.525,281.66 265.991,282.014 261.148,279.219Z" style="fill:rgb(229,97,97);fill-rule:nonzero;"/>
                </g>
                <g transform="matrix(2,0,0,2,0,0)">
                    <path d="M212.705,226.202L212.705,250.553L309.072,260.171L309.072,236.547L212.705,226.202Z" style="fill:rgb(229,97,97);fill-rule:nonzero;"/>
                </g>
                <g transform="matrix(2,0,0,2,0,0)">
                    <path d="M212.705,219.167L212.705,226.202L309.072,236.547L309.072,228.823L212.705,219.167Z" style="fill:rgb(111,206,233);fill-rule:nonzero;"/>
                </g>
                <g transform="matrix(2,0,0,2,0,0)">
                    <path d="M261.148,257.481L215.971,231.396C211.13,228.602 211.743,223.674 217.333,220.447L241.718,206.368C247.308,203.141 255.842,202.787 260.683,205.582L305.862,231.666C310.703,234.461 310.09,239.388 304.5,242.615L280.115,256.694C274.525,259.922 265.991,260.275 261.148,257.481Z" style="fill:rgb(71,58,71);fill-rule:nonzero;"/>
                </g>
                <g transform="matrix(2,0,0,2,0,0)">
                    <path d="M261.148,255.417L215.971,229.333C211.13,226.538 211.743,221.61 217.333,218.383L241.718,204.304C247.308,201.077 255.842,200.723 260.683,203.519L305.862,229.603C310.703,232.397 310.09,237.325 304.5,240.552L280.115,254.631C274.525,257.858 265.991,258.212 261.148,255.417Z" style="fill:rgb(111,206,233);fill-rule:nonzero;"/>
                </g>
                <g transform="matrix(2,0,0,2,0,0)">
                    <path d="M261.148,250.065L215.971,223.982C211.13,221.187 211.743,216.259 217.333,213.032L241.718,198.953C247.308,195.726 255.842,195.372 260.683,198.167L305.862,224.251C310.703,227.046 310.09,231.974 304.5,235.201L280.115,249.279C274.525,252.507 265.991,252.86 261.148,250.065Z" style="fill:white;fill-rule:nonzero;"/>
                </g>
                <g transform="matrix(2,0,0,2,0,0)">
                    <path d="M281.721,221.518C281.721,227.631 272.406,232.584 260.915,232.584C249.426,232.584 240.112,227.631 240.112,221.518C240.112,215.406 249.426,210.453 260.915,210.453C272.406,210.453 281.721,215.406 281.721,221.518Z" style="fill:rgb(229,97,97);fill-rule:nonzero;"/>
                </g>
                <g transform="matrix(2,0,0,2,0,0)">
                    <path d="M252.544,229.468L247.147,226.353L269.289,213.569L274.686,216.685L252.544,229.468Z" style="fill:white;fill-rule:nonzero;"/>
                </g>
                <g transform="matrix(2,0,0,2,0,0)">
                    <path d="M248.214,217.782L254.444,214.184L273.619,225.255L267.389,228.853L248.214,217.782Z" style="fill:white;fill-rule:nonzero;"/>
                </g>
                <g transform="matrix(2,0,0,2,0,0)">
                    <path d="M283.535,272.528L285.739,273.801L285.739,259.259L283.535,257.986L283.535,272.528Z" style="fill:white;fill-rule:nonzero;"/>
                </g>
                <g transform="matrix(2,0,0,2,0,0)">
                    <path d="M296.917,264.8L299.12,266.072L299.12,251.531L296.917,250.259L296.917,264.8Z" style="fill:white;fill-rule:nonzero;"/>
                </g>
                <g transform="matrix(2,0,0,2,0,0)">
                    <path d="M299.116,251.536L299.116,263.281L287.793,269.818L287.793,258.073L285.739,259.259L285.739,273.801L301.17,264.891L301.17,250.35L299.116,251.536Z" style="fill:rgb(152,219,248);fill-rule:nonzero;"/>
                </g>
                <g transform="matrix(2,0,0,2,0,0)">
                    <path d="M287.793,269.818L299.12,263.271L296.917,261.953L287.793,267.227L287.793,269.818Z" style="fill:white;fill-rule:nonzero;"/>
                </g>
                <g transform="matrix(2,0,0,2,0,0)">
                    <path d="M287.793,258.073L285.739,259.259L283.535,257.99L285.59,256.805L287.793,258.073Z" style="fill:white;fill-rule:nonzero;"/>
                </g>
                <g transform="matrix(2,0,0,2,0,0)">
                    <path d="M301.175,250.348L299.12,251.534L296.917,250.266L298.971,249.079L301.175,250.348Z" style="fill:white;fill-rule:nonzero;"/>
                </g>
                <g transform="matrix(2,0,0,2,0,0)">
                    <path d="M124.027,189.671C124.027,193.422 129.743,196.461 136.793,196.461C143.843,196.461 149.559,193.422 149.559,189.671C149.559,185.921 143.843,182.881 136.793,182.881C129.743,182.881 124.027,185.921 124.027,189.671Z" style="fill:rgb(173,225,246);fill-rule:nonzero;"/>
                </g>
                <g transform="matrix(2,0,0,2,0,0)">
                    <rect x="124.027" y="156.928" width="25.532" height="32.743" style="fill:rgb(173,225,246);fill-rule:nonzero;"/>
                </g>
                <g transform="matrix(2,0,0,2,0,0)">
                    <path d="M124.027,156.928C124.027,160.679 129.743,163.718 136.793,163.718C143.843,163.718 149.559,160.679 149.559,156.928C149.559,153.178 143.843,150.138 136.793,150.138C129.743,150.138 124.027,153.178 124.027,156.928Z" style="fill:white;fill-rule:nonzero;"/>
                </g>
                <g transform="matrix(2,0,0,2,0,0)">
                    <path d="M126.231,156.928C126.231,160.031 130.96,162.545 136.793,162.545C142.626,162.545 147.354,160.031 147.354,156.928C147.354,153.825 142.626,151.311 136.793,151.311C130.96,151.311 126.231,153.825 126.231,156.928Z" style="fill:rgb(152,219,248);fill-rule:nonzero;"/>
                </g>
                <g transform="matrix(2,0,0,2,0,0)">
                    <path d="M128.513,156.928C128.513,159.372 132.237,161.353 136.832,161.353C141.426,161.353 145.15,159.372 145.15,156.928C145.15,154.484 141.426,152.503 136.832,152.503C132.237,152.503 128.513,154.484 128.513,156.928Z" style="fill:white;fill-rule:nonzero;"/>
                </g>
                <g transform="matrix(2,0,0,2,0,0)">
                    <path d="M131.09,156.928C131.09,158.604 133.643,159.961 136.793,159.961C139.942,159.961 142.496,158.604 142.496,156.928C142.496,155.252 139.942,153.895 136.793,153.895C133.643,153.895 131.09,155.252 131.09,156.928Z" style="fill:rgb(152,219,248);fill-rule:nonzero;"/>
                </g>
                <g transform="matrix(2,0,0,2,0,0)">
                    <path d="M133.369,156.928C133.369,157.934 134.902,158.749 136.793,158.749C138.684,158.749 140.216,157.934 140.216,156.928C140.216,155.922 138.684,155.107 136.793,155.107C134.902,155.107 133.369,155.922 133.369,156.928Z" style="fill:white;fill-rule:nonzero;"/>
                </g>
                <g transform="matrix(2,0,0,2,0,0)">
                    <path d="M189.396,225.925C192.011,227.435 193.761,227.117 195.56,227.523L167.34,243.816C165.599,243.476 163.829,243.636 161.277,242.163L161.061,242.023L189.183,225.787L189.396,225.925Z" style="fill:rgb(111,206,233);fill-rule:nonzero;"/>
                </g>
                <g transform="matrix(2,0,0,2,0,0)">
                    <path d="M118.187,217.285L146.431,201.119C146.431,201.119 152.217,203.039 155.398,204.478L127.241,220.735C123.856,219.227 118.187,217.285 118.187,217.285Z" style="fill:rgb(111,206,233);fill-rule:nonzero;"/>
                </g>
                <g transform="matrix(2,0,0,2,0,0)">
                    <path d="M168.962,214.082C171.231,215.225 173.792,215.723 176.276,216.647L148.114,232.906C145.625,232.013 143.067,231.526 140.823,230.328L168.962,214.082Z" style="fill:rgb(111,206,233);fill-rule:nonzero;"/>
                </g>
                <g transform="matrix(2,0,0,2,0,0)">
                    <path d="M159.458,207.105L131.391,223.31C130.511,222.609 129.695,222.006 128.942,221.572C128.514,221.324 127.919,221.038 127.241,220.735L155.398,204.478C155.915,204.712 156.37,204.934 156.712,205.132C157.548,205.615 158.465,206.306 159.458,207.105Z" style="fill:white;fill-rule:nonzero;"/>
                </g>
                <g transform="matrix(2,0,0,2,0,0)">
                    <path d="M178.914,217.86C179.3,218.084 179.68,218.336 180.057,218.592L151.941,234.825C151.601,234.597 151.261,234.368 150.914,234.168C150.005,233.644 149.064,233.247 148.114,232.906L176.276,216.647C177.17,216.98 178.056,217.365 178.914,217.86Z" style="fill:white;fill-rule:nonzero;"/>
                </g>
                <g transform="matrix(2,0,0,2,0,0)">
                    <path d="M197.29,228.191C198.195,228.715 199.089,229.363 199.927,230.047L171.822,246.272C171.052,245.641 170.237,245.045 169.413,244.569C168.696,244.155 168.02,243.949 167.34,243.816L195.56,227.523C196.123,227.649 196.689,227.845 197.29,228.191Z" style="fill:white;fill-rule:nonzero;"/>
                </g>
                <g transform="matrix(2,0,0,2,0,0)">
                    <path d="M204.671,234.743L176.427,250.909C176.427,250.909 174.388,248.38 171.822,246.272L199.927,230.047C202.589,232.218 204.671,234.743 204.671,234.743Z" style="fill:rgb(152,219,248);fill-rule:nonzero;"/>
                </g>
                <g transform="matrix(2,0,0,2,0,0)">
                    <path d="M189.183,225.787L161.061,242.023C158.052,240.212 155.149,236.98 151.941,234.825L180.057,218.592C183.263,220.77 186.172,223.977 189.183,225.787Z" style="fill:rgb(173,225,246);fill-rule:nonzero;"/>
                </g>
                <g transform="matrix(2,0,0,2,0,0)">
                    <path d="M140.47,230.149C136.901,228.089 133.887,225.299 131.391,223.31L159.458,207.105C161.917,209.086 164.859,211.758 168.32,213.756C168.528,213.877 168.748,213.974 168.962,214.082L140.823,230.328C140.706,230.267 140.585,230.216 140.47,230.149Z" style="fill:rgb(173,225,246);fill-rule:nonzero;"/>
                </g>
                <g transform="matrix(2,0,0,2,0,0)">
                    <path d="M113.182,195.838L139.066,181.008L148.932,202.945L123.167,217.718L113.182,195.838Z" style="fill:white;fill-rule:nonzero;"/>
                </g>
                <g transform="matrix(2,0,0,2,0,0)">
                    <path d="M110.313,202.264C110.313,208.037 113.823,214.744 118.153,217.244C122.483,219.743 125.993,217.09 125.993,211.316C125.993,205.544 122.483,198.836 118.153,196.337C113.823,193.837 110.313,196.491 110.313,202.264Z" style="fill:rgb(152,219,248);fill-rule:nonzero;"/>
                </g>
                <g transform="matrix(2,0,0,2,0,0)">
                    <path d="M111.421,202.982C111.421,207.965 114.45,213.753 118.187,215.911C121.924,218.068 124.954,215.778 124.954,210.795C124.954,205.813 121.924,200.024 118.187,197.867C114.45,195.709 111.421,198 111.421,202.982Z" style="fill:white;fill-rule:nonzero;"/>
                </g>
                <g transform="matrix(2,0,0,2,0,0)">
                    <path d="M112.449,203.497C112.449,207.697 115.002,212.577 118.153,214.396C121.303,216.214 123.857,214.284 123.857,210.083C123.857,205.883 121.303,201.003 118.153,199.185C115.002,197.366 112.449,199.297 112.449,203.497Z" style="fill:rgb(152,219,248);fill-rule:nonzero;"/>
                </g>
                <g transform="matrix(2,0,0,2,0,0)">
                    <path d="M113.706,204.321C113.706,207.596 115.697,211.4 118.153,212.818C120.609,214.236 122.6,212.731 122.6,209.457C122.6,206.182 120.609,202.377 118.153,200.959C115.697,199.541 113.706,201.046 113.706,204.321Z" style="fill:white;fill-rule:nonzero;"/>
                </g>
                <g transform="matrix(2,0,0,2,0,0)">
                    <path d="M115.169,205.068C115.169,207.265 116.505,209.817 118.153,210.768C119.801,211.719 121.136,210.709 121.136,208.513C121.136,206.316 119.801,203.764 118.153,202.813C116.505,201.861 115.169,202.871 115.169,205.068Z" style="fill:rgb(152,219,248);fill-rule:nonzero;"/>
                </g>
                <g transform="matrix(2,0,0,2,0,0)">
                    <path d="M116.279,205.708C116.279,207.088 117.118,208.691 118.153,209.288C119.188,209.886 120.026,209.251 120.026,207.872C120.026,206.492 119.188,204.89 118.153,204.292C117.118,203.695 116.279,204.329 116.279,205.708Z" style="fill:white;fill-rule:nonzero;"/>
                </g>
                <g transform="matrix(2,0,0,2,0,0)">
                    <path d="M136.117,187.467C136.117,193.241 139.626,199.948 143.956,202.447C148.286,204.947 151.796,202.293 151.796,196.521C151.796,190.748 148.286,184.041 143.956,181.541C139.626,179.041 136.117,181.694 136.117,187.467Z" style="fill:white;fill-rule:nonzero;"/>
                </g>
                <g transform="matrix(2,0,0,2,0,0)">
                    <path d="M224.499,197.129L202.267,184.293C200.149,182.872 200.009,180.4 200.751,179.618C201.171,178.987 202.106,178.837 203.01,178.315C206.063,176.553 210.722,176.36 213.365,177.886L235.597,190.722C238.239,192.248 237.928,194.262 234.876,196.024L234.854,196.024C231.801,197.786 227.142,198.655 224.499,197.129Z" style="fill:rgb(244,154,80);fill-rule:nonzero;"/>
                </g>
                <g transform="matrix(2,0,0,2,0,0)">
                    <path d="M224.499,196.195L202.267,183.36C199.624,181.834 199.958,179.144 203.01,177.382C206.063,175.62 210.722,175.426 213.365,176.953L235.597,189.788C238.239,191.314 237.905,194.004 234.854,195.766C231.801,197.528 227.142,197.721 224.499,196.195Z" style="fill:rgb(251,180,121);fill-rule:nonzero;"/>
                </g>
                <g transform="matrix(2,0,0,2,0,0)">
                    <path d="M224.964,193.075L230.704,189.761L213.975,180.073L208.235,183.387L224.964,193.075Z" style="fill:white;fill-rule:nonzero;"/>
                </g>
                <g transform="matrix(2,0,0,2,0,0)">
                    <path d="M187.752,216.503L174.556,208.715C173.208,207.92 172.138,206.053 172.185,204.634C172.247,202.778 173.01,201.999 175.657,200.504L191.063,191.804C195.284,189.421 201.694,189.216 205.309,191.35L218.505,199.137C220.428,200.272 220.91,200.105 220.916,201.729C220.923,203.926 219.379,206.233 217.404,207.349L201.998,216.049C197.777,218.432 191.367,218.636 187.752,216.503Z" style="fill:rgb(244,154,80);fill-rule:nonzero;"/>
                </g>
                <g transform="matrix(2,0,0,2,0,0)">
                    <path d="M187.752,215.448L174.556,207.661C170.941,205.527 171.437,201.832 175.657,199.449L191.063,190.749C195.284,188.366 201.694,188.161 205.309,190.294L218.505,198.082C222.12,200.215 221.625,203.911 217.404,206.294L201.998,214.994C197.777,217.377 191.367,217.582 187.752,215.448Z" style="fill:rgb(251,180,121);fill-rule:nonzero;"/>
                </g>
                <g transform="matrix(2,0,0,2,0,0)">
                    <path d="M195.304,212.166L179.441,203.008L197.757,192.433L213.62,201.591L195.304,212.166Z" style="fill:white;fill-rule:nonzero;"/>
                </g>
                <g transform="matrix(2,0,0,2,0,0)">
                    <path d="M206.107,164.883L184.215,177.522L184.215,139.328L206.107,126.688L206.107,164.883Z" style="fill:rgb(102,105,176);fill-rule:nonzero;"/>
                </g>
                <g transform="matrix(2,0,0,2,0,0)">
                    <path d="M186.154,141.723L186.154,144.576L204.801,133.81L204.801,130.957L186.154,141.723Z" style="fill:rgb(71,58,71);fill-rule:nonzero;"/>
                </g>
                <g transform="matrix(2,0,0,2,0,0)">
                    <path d="M194.467,165.819L186.154,170.618L186.154,172.148L194.467,167.348L194.467,165.819Z" style="fill:white;fill-rule:nonzero;"/>
                </g>
                <g transform="matrix(2,0,0,2,0,0)">
                    <path d="M194.467,154.366L186.154,159.165L186.154,160.695L194.467,155.896L194.467,154.366Z" style="fill:white;fill-rule:nonzero;"/>
                </g>
                <g transform="matrix(2,0,0,2,0,0)">
                    <path d="M194.467,151.201L186.154,156L186.154,157.53L194.467,152.731L194.467,151.201Z" style="fill:white;fill-rule:nonzero;"/>
                </g>
                <g transform="matrix(2,0,0,2,0,0)">
                    <path d="M194.467,157.803L186.154,162.603L186.154,168.353L194.467,163.554L194.467,157.803Z" style="fill:white;fill-rule:nonzero;"/>
                </g>
                <g transform="matrix(2,0,0,2,0,0)">
                    <path d="M199.718,164.843C198.124,165.764 196.82,164.778 196.82,162.653L196.82,144.149C196.82,142.024 198.124,139.532 199.718,138.612C201.312,137.692 202.616,138.678 202.616,140.803L202.616,159.306C202.616,161.432 201.312,163.923 199.718,164.843Z" style="fill:white;fill-rule:nonzero;"/>
                </g>
                <g transform="matrix(2,0,0,2,0,0)">
                    <path d="M200.863,144.312L198.573,145.633L198.573,160.618L200.863,159.296L200.863,144.312Z" style="fill:rgb(102,105,176);fill-rule:nonzero;"/>
                </g>
                <g transform="matrix(2,0,0,2,0,0)">
                    <path d="M170.203,131.209L170.203,169.404L184.264,177.522L184.264,139.328L170.203,131.209Z" style="fill:rgb(77,86,160);fill-rule:nonzero;"/>
                </g>
                <g transform="matrix(2,0,0,2,0,0)">
                    <path d="M173.077,142.559L181.39,147.358L181.39,173.048L173.077,168.249L173.077,142.559Z" style="fill:rgb(71,58,71);fill-rule:nonzero;"/>
                </g>
                <g transform="matrix(2,0,0,2,0,0)">
                    <path d="M173.077,136.737L181.39,141.536L181.39,144.383L173.077,139.584L173.077,136.737Z" style="fill:rgb(71,58,71);fill-rule:nonzero;"/>
                </g>
                <g transform="matrix(2,0,0,2,0,0)">
                    <path d="M170.203,131.209L184.264,139.328L206.107,126.688L192.061,118.569L170.203,131.209Z" style="fill:rgb(117,124,188);fill-rule:nonzero;"/>
                </g>
                <g transform="matrix(2,0,0,2,0,0)">
                    <path d="M160.491,174.147C157.173,176.728 155.575,179.555 155.575,179.555L155.575,188.416C155.575,188.416 157.173,185.589 160.491,183.008C163.809,180.427 169.708,178.169 169.708,178.169L169.708,169.308C169.708,169.308 163.809,171.566 160.491,174.147Z" style="fill:rgb(245,165,103);fill-rule:nonzero;"/>
                </g>
                <g transform="matrix(2,0,0,2,0,0)">
                    <path d="M187.43,182.347C187.43,185.392 182.791,187.858 177.067,187.858C171.345,187.858 166.706,185.392 166.706,182.347C166.706,179.303 171.345,176.835 177.067,176.835C182.791,176.835 187.43,179.303 187.43,182.347Z" style="fill:rgb(244,154,80);fill-rule:nonzero;"/>
                </g>
                <g transform="matrix(2,0,0,2,0,0)">
                    <rect x="166.706" y="173.125" width="20.724" height="8.786" style="fill:rgb(244,154,80);fill-rule:nonzero;"/>
                </g>
                <g transform="matrix(2,0,0,2,0,0)">
                    <path d="M187.43,173.125C187.43,176.169 182.791,178.636 177.067,178.636C171.345,178.636 166.706,176.169 166.706,173.125C166.706,170.08 171.345,167.613 177.067,167.613C182.791,167.613 187.43,170.08 187.43,173.125Z" style="fill:rgb(251,180,121);fill-rule:nonzero;"/>
                </g>
                <g transform="matrix(2,0,0,2,0,0)">
                    <path d="M182.009,173.125C182.009,174.576 179.797,175.752 177.068,175.752C174.339,175.752 172.127,174.576 172.127,173.125C172.127,171.673 174.339,170.496 177.068,170.496C179.797,170.496 182.009,171.673 182.009,173.125Z" style="fill:rgb(71,58,71);fill-rule:nonzero;"/>
                </g>
            </g>
        </g>
    </g>
</svg>
