<?xml version="1.0" encoding="UTF-8" standalone="no"?>
<!DOCTYPE svg PUBLIC "-//W3C//DTD SVG 1.1//EN" "http://www.w3.org/Graphics/SVG/1.1/DTD/svg11.dtd">
<svg width="100%" height="100%" viewBox="0 0 602 566" version="1.1" xmlns="http://www.w3.org/2000/svg" xmlns:xlink="http://www.w3.org/1999/xlink" xml:space="preserve" xmlns:serif="http://www.serif.com/" style="fill-rule:evenodd;clip-rule:evenodd;stroke-linejoin:round;stroke-miterlimit:2;">
    <g transform="matrix(1,0,0,1,-1080.02,-257.095)">
        <g transform="matrix(1.01366,0,0,1.01819,-26.2218,-19.6424)">
            <g transform="matrix(2.55446,0,0,2.55446,790.9,-52.2835)">
                <g transform="matrix(1.97305,0,0,1.96427,25.8685,19.2916)">
                    <path d="M139.963,64.733C139.263,64.243 137.724,63.751 136.649,63.09C136.156,64.768 135.424,65.878 134.798,67.513L142.086,70.171L143.777,67.182C142.583,66.387 141.993,66.154 139.963,64.733Z" style="fill:rgb(247,159,142);fill-rule:nonzero;"/>
                </g>
                <g transform="matrix(1.97305,0,0,1.96427,25.8685,19.2916)">
                    <path d="M149.11,69.488C148.483,68.667 145.703,66.939 143.27,66.185C142.247,68.359 141.155,69.712 140.653,70.638L148.231,75.986L150.699,72.575C150.699,72.575 150.058,70.729 149.11,69.488Z" style="fill:rgb(152,219,248);fill-rule:nonzero;"/>
                </g>
                <g transform="matrix(1.97305,0,0,1.96427,25.8685,19.2916)">
                    <path d="M126.88,80.62C130.85,75.647 132.025,65.986 132.025,65.986L131.332,65.02C131.332,65.02 128.664,64.867 126.583,69.74C124.5,74.613 121.735,78.096 121.735,81.112C123.368,81.884 124.266,83.718 126.88,80.62Z" style="fill:rgb(242,112,110);fill-rule:nonzero;"/>
                </g>
                <g transform="matrix(1.97305,0,0,1.96427,25.8685,19.2916)">
                    <path d="M125.985,128.559C125.985,128.559 125.017,129.612 123.724,130.873C122.527,132.04 122.156,132.375 121.045,133.459C120.397,134.092 120.931,134.674 122.167,134.627C123.254,134.585 125.715,134.056 127.092,133.562C128.07,133.21 129.863,132.219 130.779,131.64C131.695,131.06 131.874,130.256 131.874,130.256L131.874,128.309L125.985,128.559Z" style="fill:rgb(42,31,40);fill-rule:nonzero;"/>
                </g>
                <g transform="matrix(1.97305,0,0,1.96427,25.8685,19.2916)">
                    <path d="M139.258,129.822C139.258,129.822 138.84,131.786 138.459,134.267C138.077,136.748 138.214,138.985 138.95,139.334C139.686,139.684 141.86,139.862 143.435,136.519C145.01,133.176 144.602,129.745 144.602,129.745L139.258,129.822Z" style="fill:rgb(42,31,40);fill-rule:nonzero;"/>
                </g>
                <g transform="matrix(1.97305,0,0,1.96427,25.8685,19.2916)">
                    <path d="M143.854,96.686C144.312,89.544 140.375,85.79 140.375,85.79C140.688,83.383 129.524,86.751 129.524,86.751C129.524,86.751 127.134,99.69 126.124,106.502C124.976,114.246 125.479,128.069 125.479,128.069C125.479,128.069 125.624,129.752 128.507,129.741C130.72,129.732 132.545,127.932 132.545,127.932L132.775,111.794L135.772,100.731C135.772,100.731 135.597,110.043 136.329,114.639C137.264,120.51 138.165,131.469 138.165,131.469C138.165,131.469 139.429,132.387 141.341,132.387C142.659,132.387 146.234,130.909 146.234,130.909C146.234,130.909 147.496,122.034 144.199,114.617C143.925,108.985 143.644,99.967 143.854,96.686Z" style="fill:rgb(58,46,56);fill-rule:nonzero;"/>
                </g>
                <g transform="matrix(1.97305,0,0,1.96427,25.8685,19.2916)">
                    <path d="M143.534,92.129C143.375,90.1 143.74,87.298 143.346,85.665C142.188,80.874 143.943,72.825 143.771,71.533C143.483,69.371 138.581,67.029 138.581,67.029C138.581,67.029 135.103,64.336 131.5,65.753C131.5,65.753 128.789,68.061 128.33,72.459C128.106,74.618 127.608,86.827 127.643,91.649C130.848,95.169 138.867,96.411 143.534,92.129Z" style="fill:rgb(245,139,140);fill-rule:nonzero;"/>
                </g>
                <g transform="matrix(1.97305,0,0,1.96427,25.8685,19.2916)">
                    <path d="M133.02,63.511C133.02,63.511 131.898,68.726 133.042,69.694C135.006,69.859 138.298,67.626 138.298,67.626L137.352,62.367L133.02,63.511Z" style="fill:rgb(249,172,152);fill-rule:nonzero;"/>
                </g>
                <g transform="matrix(1.97305,0,0,1.96427,25.8685,19.2916)">
                    <path d="M132.556,57.36C133.83,55.737 137.492,54.369 139.878,57.9C142.381,61.603 140.016,67.658 137.824,67.304C136.597,67.106 133.833,65.988 132.622,64.01C131.259,61.785 131.566,58.622 132.556,57.36Z" style="fill:rgb(251,196,179);fill-rule:nonzero;"/>
                </g>
                <g transform="matrix(1.97305,0,0,1.96427,25.8685,19.2916)">
                    <path d="M132.799,66.164L133.089,69.676L130.856,70.586C130.856,70.586 130.615,66.888 132.799,66.164Z" style="fill:white;fill-rule:nonzero;"/>
                </g>
                <g transform="matrix(1.97305,0,0,1.96427,25.8685,19.2916)">
                    <path d="M137.432,67.222C137.071,67.678 136.729,68.218 135.809,68.737C134.989,69.2 133.089,69.676 133.089,69.676L133.929,72.195C133.929,72.195 136.585,71.118 137.89,70.084C137.89,70.084 139.332,68.603 138.555,67.194C138.524,67.209 137.935,67.394 137.432,67.222Z" style="fill:white;fill-rule:nonzero;"/>
                </g>
                <g transform="matrix(1.97305,0,0,1.96427,25.8685,19.2916)">
                    <path d="M140.64,59.517C140.139,58.857 139.878,57.9 138.192,58.478C134.49,59.748 134.631,62.827 134.631,62.827C134.631,62.827 134.296,62.84 134.02,62.743C133.799,61.896 133.436,61.698 133.022,62.055C132.554,62.459 132.622,64.01 132.622,64.01C132.622,64.01 130.854,62.484 130.863,59.931C130.868,58.34 132.046,55.191 134.961,54.831C137.876,54.469 139.656,55.685 140.317,56.998C140.704,57.764 140.869,59.151 140.64,59.517Z" style="fill:rgb(42,31,40);fill-rule:nonzero;"/>
                </g>
                <g transform="matrix(1.97305,0,0,1.96427,25.8685,19.2916)">
                    <path d="M145.253,85.528C146.407,86.905 147.904,88.446 150.071,87.787C151.385,87.387 151.791,85.242 151.404,83.921C150.478,80.636 148.845,77.15 147.297,74.425C145.169,70.681 143.424,68.143 141.228,68.582C140.456,69.464 140.779,73.272 141.699,76.422L145.241,85.471L145.253,85.528Z" style="fill:rgb(242,112,110);fill-rule:nonzero;"/>
                </g>
                <g transform="matrix(1.97305,0,0,1.96427,25.8685,19.2916)">
                    <path d="M143.22,138.665C144.561,137.358 145.564,136.267 145.564,136.267L151.667,135.267L151.667,138.025C151.667,138.025 151.482,138.859 150.533,139.46C149.583,140.061 147.725,141.088 146.711,141.452C145.284,141.965 142.733,142.513 141.606,142.557C140.325,142.606 139.771,142.003 140.443,141.347C141.595,140.223 141.979,139.875 143.22,138.665Z" style="fill:rgb(58,46,56);fill-rule:nonzero;"/>
                </g>
                <g transform="matrix(1.97305,0,0,1.96427,25.8685,19.2916)">
                    <path d="M155.553,138.373L158.825,136.311C158.825,136.311 159.987,137.803 160.025,138.428C160.238,141.883 160.972,143.11 159.911,145.998C158.59,149.593 156.6,149.056 155.806,148.77C155.012,148.484 154.636,146.189 154.788,143.591C154.949,140.819 155.621,137.738 155.553,138.373Z" style="fill:rgb(58,46,56);fill-rule:nonzero;"/>
                </g>
                <g transform="matrix(1.97305,0,0,1.96427,25.8685,19.2916)">
                    <path d="M147.976,90.989C145.441,91.743 143.101,92.654 143.101,92.654C143.101,92.654 141.496,104.5 141.005,111.623C140.738,115.495 141.876,120.628 142.649,125.661C143.493,131.15 144.455,136.543 144.455,136.543C144.455,136.543 144.901,137.926 147.88,137.681C150.167,137.492 152.302,135.267 152.302,135.267C152.302,135.267 150.638,125.844 149.936,122.733C149.584,121.175 148.67,117.881 148.67,117.881L150.925,105.138C150.539,98.652 148.492,97.468 147.976,90.989Z" style="fill:rgb(77,86,160);fill-rule:nonzero;"/>
                </g>
                <g transform="matrix(1.97305,0,0,1.96427,25.8685,19.2916)">
                    <path d="M153.835,129.579C153.835,129.579 154.347,132.511 154.757,134.006C155.167,135.501 155.404,138.913 155.404,138.913C155.404,138.913 155.672,138.556 157.094,138.399C158.572,138.236 159.364,138.748 159.364,138.748C159.364,138.748 159.832,135.479 159.817,133.176C159.804,130.872 159.603,128.65 159.603,128.65L153.835,129.579Z" style="fill:rgb(251,196,179);fill-rule:nonzero;"/>
                </g>
                <g transform="matrix(1.97305,0,0,1.96427,25.8685,19.2916)">
                    <path d="M153.735,114.348C155.604,114.324 157.826,114.639 157.826,114.639L157.851,114.694C158.129,109.562 159.517,104.011 158.391,99.109C156.731,91.878 154.129,92.077 154.129,92.077C154.287,90.862 151.622,91.068 148.846,91.598C148.851,95.188 149.099,106.567 149.833,114.35C149.834,114.35 151.867,114.372 153.735,114.348Z" style="fill:rgb(77,86,160);fill-rule:nonzero;"/>
                </g>
                <g transform="matrix(1.97305,0,0,1.96427,25.8685,19.2916)">
                    <path d="M159.603,128.65C158.81,125.256 159.205,120.527 157.826,117.424C157.782,116.533 157.801,115.62 157.851,114.694L157.826,114.639C157.826,114.639 155.604,114.324 153.735,114.348C151.867,114.372 149.834,114.35 149.833,114.35C150.088,117.064 150.403,119.344 150.788,120.699C151.488,123.169 153.32,126.584 153.835,129.579C155.675,130.252 157.613,130.519 159.603,128.65Z" style="fill:white;fill-rule:nonzero;"/>
                </g>
                <g transform="matrix(1.97305,0,0,1.96427,25.8685,19.2916)">
                    <path d="M146.836,71.013C147.354,71.229 147.821,72.425 147.821,72.425L153.931,72.537C153.931,72.537 158.897,73.561 160.066,77.408C160.152,78.616 160.01,81.429 159.816,82.694C159.637,82.804 158.476,82.618 158.391,82.865C156.837,87.387 158.503,93.387 158.829,97.932C153.257,101.942 145.451,99.112 142.089,96.609C143.391,87.711 139.77,77.444 146.836,71.013Z" style="fill:white;fill-rule:nonzero;"/>
                </g>
                <g transform="matrix(1.97305,0,0,1.96427,25.8685,19.2916)">
                    <path d="M148.507,71.555L153.147,68.184L154.129,73.636C154.129,73.636 153.186,74.764 151.795,75.494C150.632,76.103 149.159,76.021 147.891,76.417C147.357,75.464 148.507,71.555 148.507,71.555Z" style="fill:rgb(247,159,142);fill-rule:nonzero;"/>
                </g>
                <g transform="matrix(1.97305,0,0,1.96427,25.8685,19.2916)">
                    <path d="M153.691,62.19C154.717,63.498 155.036,66.777 153.623,69.084C152.367,71.133 149.502,72.293 148.229,72.498C145.958,72.865 143.506,66.589 146.1,62.75C148.574,59.089 152.371,60.507 153.691,62.19Z" style="fill:rgb(251,196,179);fill-rule:nonzero;"/>
                </g>
                <g transform="matrix(1.97305,0,0,1.96427,25.8685,19.2916)">
                    <path d="M151.508,59.412C152.813,59.625 153.8,60.423 154.497,61.396C156.812,61.889 156.576,65.224 156.001,66.483C154.891,68.916 153.623,69.084 153.623,69.084C153.623,69.084 153.954,67.756 153.661,67.179C153.411,66.685 152.622,66.6 152.357,67.478C152.064,67.568 151.713,67.541 151.713,67.541L151.979,65.787C151.979,65.787 150.643,66.465 149.126,65.588C147.721,64.775 146.353,65.248 145.864,65.71C145.566,64.964 145.635,63.7 145.676,63.09C144.331,63.63 143.878,62.725 144.008,62.296C144.699,62.499 145.493,62.516 146.162,62.092C145.593,61.645 145.315,61.239 144.986,60.751C146.569,60.954 149.984,59.163 151.508,59.412Z" style="fill:rgb(42,31,40);fill-rule:nonzero;"/>
                </g>
                <g transform="matrix(1.97305,0,0,1.96427,25.8685,19.2916)">
                    <path d="M148.358,72.425C148.055,74.155 147.891,76.417 147.891,76.417C147.891,76.417 146.188,76.079 145.315,75.268C145.565,74.015 146.813,71.923 146.813,71.923C146.951,72.078 147.709,72.672 148.358,72.425Z" style="fill:rgb(152,219,248);fill-rule:nonzero;"/>
                </g>
                <g transform="matrix(1.97305,0,0,1.96427,25.8685,19.2916)">
                    <path d="M153.668,71.078C153.668,71.078 154.483,72.035 154.574,72.496C154.861,73.961 152.848,75.941 151.675,77.467C148.428,77.057 147.891,76.417 147.891,76.417C147.891,76.417 149.714,75.068 150.743,74.251C153.154,72.336 153.668,71.078 153.668,71.078Z" style="fill:rgb(152,219,248);fill-rule:nonzero;"/>
                </g>
                <g transform="matrix(1.97305,0,0,1.96427,25.8685,19.2916)">
                    <path d="M164.232,93.894C164.37,93.596 164.147,93.237 164.232,92.92C163.653,88.193 162.443,81.883 162.443,81.883L156.858,81.883C156.858,81.883 156.236,82.349 157.307,86.645C158.284,90.569 159.686,92.872 160.226,94.683C161.427,95.629 163.497,95.488 164.232,93.894Z" style="fill:rgb(251,196,179);fill-rule:nonzero;"/>
                </g>
                <g transform="matrix(1.97305,0,0,1.96427,25.8685,19.2916)">
                    <path d="M158.102,74.555C161.752,75.038 162.403,79.481 163.398,84.984C160.836,86.257 159.253,87.189 156.958,86.408C156.739,85.322 156.256,84.144 155.981,82.468C155.466,79.328 156.078,74.288 158.102,74.555Z" style="fill:rgb(152,219,248);fill-rule:nonzero;"/>
                </g>
                <g transform="matrix(1.97305,0,0,1.96427,25.8685,19.2916)">
                    <path d="M150.036,116.295C150.036,116.295 152.418,116.011 154.129,115.986C156.538,115.951 157.802,116.288 157.802,116.288L157.826,117.424C157.826,117.424 155.167,117.45 153.506,117.424C151.846,117.398 150.188,117.512 150.188,117.512L150.036,116.295Z" style="fill:rgb(165,220,227);fill-rule:nonzero;"/>
                </g>
                <g transform="matrix(1.97305,0,0,1.96427,25.8685,19.2916)">
                    <path d="M158.281,118.716C158.285,118.729 155.327,120.222 153.835,120.554C152.344,120.886 151.077,121.604 151.077,121.604L151.544,122.853C151.544,122.853 153.208,122.594 155.198,121.799C157.189,121.004 158.537,119.817 158.537,119.817L158.281,118.716Z" style="fill:rgb(165,220,227);fill-rule:nonzero;"/>
                </g>
                <g transform="matrix(1.97305,0,0,1.96427,25.8685,19.2916)">
                    <path d="M158.774,121.353C158.774,121.353 155.479,123.823 154.482,124.042C153.486,124.259 152.193,124.471 152.193,124.471L152.639,125.601C152.639,125.601 153.548,125.972 155.634,124.913C157.721,123.854 158.911,122.67 158.911,122.67L158.774,121.353Z" style="fill:rgb(165,220,227);fill-rule:nonzero;"/>
                </g>
                <g transform="matrix(1.97305,0,0,1.96427,25.8685,19.2916)">
                    <path d="M159.048,124.325C159.048,124.325 157.191,125.785 156.039,126.283C154.887,126.782 153.151,127.008 153.151,127.008L153.384,127.73C153.384,127.73 155.241,127.676 156.475,127.238C158.406,126.553 159.162,125.664 159.162,125.664L159.048,124.325Z" style="fill:rgb(165,220,227);fill-rule:nonzero;"/>
                </g>
                <g transform="matrix(1.97305,0,0,1.96427,25.8685,19.2916)">
                    <path d="M160.456,91.698C160.456,91.698 157.368,93.184 154.812,94.313C152.256,95.442 149.717,96.788 148.556,98.133C147.396,99.479 148.101,101.159 151.381,100.183C153.187,99.646 154.826,97.461 156.063,97.394C157.301,97.326 162.506,96.264 163.636,94.687C163.979,94.313 163.636,92.207 163.636,92.207L160.456,91.698Z" style="fill:rgb(251,196,179);fill-rule:nonzero;"/>
                </g>
                <g transform="matrix(1.97305,0,0,1.96427,25.8685,19.2916)">
                    <path d="M145.676,63.09C145.676,63.09 145.166,63.593 144.986,64.471C144.837,65.2 144.986,66.035 144.986,66.035C144.986,66.035 147.008,68.195 150.191,68.822C153.375,69.449 153.579,69.376 154.42,68.862C155.303,68.321 155.808,66.882 155.808,66.882C155.808,66.882 154.669,66.43 152.302,65.341C149.936,64.253 145.676,63.09 145.676,63.09Z" style="fill:white;fill-rule:nonzero;"/>
                </g>
                <g transform="matrix(1.97305,0,0,1.96427,25.8685,19.2916)">
                    <path d="M132.862,66.483C132.851,65.827 132.858,65.026 132.862,64.365C132.453,63.786 132.12,63.46 131.846,63.09C130.431,63.876 128.815,65.859 128.242,66.631C127.053,68.229 126.233,69.489 125.885,70.585C125.527,71.715 125.514,72.958 126.174,73.746C126.834,74.535 127.918,73.317 128.309,72.115C128.542,71.395 129.024,70.286 129.024,70.286C129.024,70.286 129.119,70.96 129.673,71.569C130.229,72.177 130.69,71.85 130.69,71.85C130.69,71.85 130.388,70.952 130.283,70.249C130.177,69.546 130.259,68.673 130.556,68.273C130.91,67.796 131.947,67.071 132.862,66.483Z" style="fill:rgb(251,196,179);fill-rule:nonzero;"/>
                </g>
                <g transform="matrix(1.97305,0,0,1.96427,25.8685,19.2916)">
                    <path d="M131.387,89.235C131.387,89.235 133.304,90.86 134.972,92.404C136.639,93.948 137.48,93.569 138.936,93.534C140.391,93.5 140.16,91.625 139.437,90.577C138.713,89.528 133.432,86.779 133.432,86.779C133.432,86.779 131.727,87.721 131.387,89.235Z" style="fill:rgb(251,196,179);fill-rule:nonzero;"/>
                </g>
                <g transform="matrix(1.97305,0,0,1.96427,25.8685,19.2916)">
                    <path d="M121.735,81.112C121.735,81.112 121.367,82.962 124.226,85.614C127.085,88.266 129.789,89.791 131.896,90.189C131.896,88.94 132.481,87.352 134.19,86.595C132.458,84.619 127.009,79.643 127.009,79.643L121.735,81.112Z" style="fill:rgb(242,112,110);fill-rule:nonzero;"/>
                </g>
            </g>
        </g>
        <g transform="matrix(1.01366,0,0,1.01819,-26.2218,-19.6424)">
            <g transform="matrix(3.4229,0,0,3.4229,-597.633,-1723.97)">
                <g transform="matrix(1.97305,0,0,1.96427,25.8685,19.2916)">
                    <path d="M276.517,323.589C276.517,323.589 280.748,326.757 281.394,327.143C282.039,327.527 285.612,328.838 286.619,329.197C287.627,329.557 286.619,332.453 286.619,332.453C286.619,332.453 281.653,331.122 280.926,330.931C280.198,330.738 274.076,327.613 273.691,327.399C273.306,327.186 276.517,323.589 276.517,323.589Z" style="fill:rgb(251,196,179);fill-rule:nonzero;"/>
                </g>
                <g transform="matrix(1.97305,0,0,1.96427,25.8685,19.2916)">
                    <path d="M277.491,323.327C274.476,320.786 270.521,317.189 270.521,317.189L268.874,326.414C268.874,326.414 271.971,327.023 274.892,328.575C276.221,327.108 277.044,325.293 277.491,323.327Z" style="fill:rgb(38,133,199);fill-rule:nonzero;"/>
                </g>
                <g transform="matrix(1.97305,0,0,1.96427,25.8685,19.2916)">
                    <path d="M270.372,352.759C270.54,350.416 266.946,340.256 266.946,340.256C266.946,340.256 258.032,337.591 258.32,344.353L266.123,357.872C269.283,357.751 270.156,355.778 270.372,352.759Z" style="fill:rgb(58,46,56);fill-rule:nonzero;"/>
                </g>
                <g transform="matrix(1.97305,0,0,1.96427,25.8685,19.2916)">
                    <path d="M253.675,351.991C253.675,351.991 261.001,356.15 262.687,357.204C264.373,358.258 267.507,358.542 269.305,356.461C271.102,354.379 264.745,350.056 264.538,349.985C263.113,349.509 257.002,346.447 255.591,346.493C252.341,346.6 253.675,351.991 253.675,351.991Z" style="fill:rgb(58,46,56);fill-rule:nonzero;"/>
                </g>
                <g transform="matrix(1.97305,0,0,1.96427,25.8685,19.2916)">
                    <path d="M239.64,348.898C237.69,349.55 237.37,350.404 237.384,352.87C237.395,354.812 236.966,356.475 236.975,357.809C236.983,359.143 238.541,361.191 240.453,360.895C243.654,360.396 241.066,359.188 241.36,357.731C241.653,356.274 241.679,352.158 242.188,351.188C242.695,350.22 240.883,348.483 239.64,348.898Z" style="fill:rgb(58,46,56);fill-rule:nonzero;"/>
                </g>
                <g transform="matrix(1.97305,0,0,1.96427,25.8685,19.2916)">
                    <path d="M250.481,343.529C248.533,344.181 248.213,345.035 248.227,347.501C248.237,349.442 247.808,351.105 247.817,352.439C247.826,353.773 249.384,355.822 251.295,355.525C254.497,355.027 251.909,353.819 252.202,352.362C252.496,350.905 252.521,346.789 253.029,345.819C253.538,344.851 251.726,343.114 250.481,343.529Z" style="fill:rgb(58,46,56);fill-rule:nonzero;"/>
                </g>
                <g transform="matrix(1.97305,0,0,1.96427,25.8685,19.2916)">
                    <path d="M251.48,338.905C250.144,340.409 250.083,344.32 250.094,348.066C250.103,351.058 249.995,353.944 250.503,355.416C249.12,354.396 247.097,352.558 246.456,352.101C244.655,350.817 242.695,349.451 242.695,349.451C242.695,349.451 240.297,349.147 239.318,351.069C238.197,353.271 239.201,355.372 239.201,355.372C239.201,355.372 241.148,356.767 242.932,358.17C245.911,360.514 249.942,363.834 252.66,363.865C254.558,363.888 255.954,363.809 256.797,361.95C257.661,360.04 258.868,356.814 259.023,354.152C259.251,350.245 260.545,342.725 260.545,342.725C260.545,342.725 253.786,340.613 251.48,338.905Z" style="fill:rgb(71,58,71);fill-rule:nonzero;"/>
                </g>
                <g transform="matrix(1.97305,0,0,1.96427,25.8685,19.2916)">
                    <path d="M271.426,318.628C270.863,318.782 265.07,317.189 265.07,317.189C265.07,317.189 259.605,319.358 257.539,323C256.052,325.619 254.26,329.658 252.286,334.727C251.487,336.777 250.747,338.826 250.104,341.172C249.835,343.384 255.224,345.263 257.471,345.556C261.273,346.052 264.838,344.934 268.007,342.942C268.377,342.266 268.639,341.526 267.996,340.707C267.835,340.501 267.755,340.27 267.711,340.028C266.135,337.833 270.295,333.2 271.41,331.24C271.996,330.209 272.268,329.033 272.53,327.633C272.979,325.245 273.285,320.818 271.426,318.628Z" style="fill:rgb(71,155,213);fill-rule:nonzero;"/>
                </g>
                <g transform="matrix(1.97305,0,0,1.96427,25.8685,19.2916)">
                    <path d="M259.661,340.93C257.255,340.33 255.258,338.551 255.258,338.551C255.258,338.551 255.706,341.375 258.57,342.142C261.436,342.909 265.438,341.564 265.438,341.564C265.438,341.564 262.069,341.529 259.661,340.93Z" style="fill:rgb(38,133,199);fill-rule:nonzero;"/>
                </g>
                <g transform="matrix(1.97305,0,0,1.96427,25.8685,19.2916)">
                    <path d="M257.937,338.551C257.937,338.551 260.864,339.796 263.151,338.551C265.438,337.306 267.928,332.858 267.928,332.858C267.928,332.858 265.378,335.527 263.629,336.505C261.88,337.483 259.066,338.729 257.937,338.551Z" style="fill:rgb(38,133,199);fill-rule:nonzero;"/>
                </g>
                <g transform="matrix(1.97305,0,0,1.96427,25.8685,19.2916)">
                    <path d="M264.362,317.501C264.362,317.502 261.933,318.243 261.953,319.645C261.972,321.046 262.737,322.068 265.241,324.736C267.594,327.243 271.512,326.916 271.445,323.98C271.379,321.046 269.444,319.044 269.444,319.044L264.362,317.501Z" style="fill:rgb(38,133,199);fill-rule:nonzero;"/>
                </g>
                <g transform="matrix(1.97305,0,0,1.96427,25.8685,19.2916)">
                    <path d="M269.884,319.063L266.018,314.501C266.018,314.501 265.07,317.189 263.629,319.473C263.683,320.635 265.768,323.249 267.217,324.009C267.798,324.313 268.593,324.723 269.096,324.396C269.641,324.043 270.178,323.38 269.626,321.58C269.362,320.72 269.884,319.063 269.884,319.063Z" style="fill:rgb(249,172,152);fill-rule:nonzero;"/>
                </g>
                <g transform="matrix(1.97305,0,0,1.96427,25.8685,19.2916)">
                    <path d="M266.36,308.41C265.073,309.567 264.158,312.874 265.194,315.494C266.115,317.822 268.846,319.526 270.114,319.965C272.38,320.748 276.021,314.749 274.048,310.346C272.167,306.146 268.018,306.92 266.36,308.41Z" style="fill:rgb(251,196,179);fill-rule:nonzero;"/>
                </g>
                <g transform="matrix(1.97305,0,0,1.96427,25.8685,19.2916)">
                    <path d="M274.563,312.258C274.164,311.483 273.802,310.536 271.95,310.829C269.51,314.273 267.123,314.643 266.854,314.492C266.779,313.575 266.439,313.304 265.945,313.599C265.388,313.933 265.178,315.552 265.178,315.552C265.178,315.552 263.624,313.65 264.094,311.007C264.387,309.359 266.179,306.312 269.264,306.465C272.349,306.619 275.063,307.154 275.525,308.63C276.072,310.377 275.639,312.042 274.563,312.258Z" style="fill:rgb(51,33,31);fill-rule:nonzero;"/>
                </g>
                <g transform="matrix(1.97305,0,0,1.96427,25.8685,19.2916)">
                    <path d="M280.792,329.636C280.792,329.636 278.32,336.512 277.811,338.736C277.301,340.961 275.937,343.703 275.169,348.483C274.92,350.035 277.195,349.832 277.195,349.832C277.195,349.832 280.034,343.703 281.201,339.766C282.23,336.291 284.918,332.578 284.918,332.578L280.792,329.636Z" style="fill:rgb(249,172,152);fill-rule:nonzero;"/>
                </g>
                <g transform="matrix(1.97305,0,0,1.96427,25.8685,19.2916)">
                    <path d="M259.616,366.877C259.616,366.877 267.932,361.936 269.608,360.544C271.286,359.153 273.189,357.341 273.189,357.341C273.189,357.341 276.204,355.568 278.123,354.673C280.042,353.777 283.146,351.233 283.146,351.233L288.137,357.646C288.137,357.646 281.387,359.836 276.174,361.014C275.008,361.276 273.316,364.032 271.372,364.984C268.69,366.297 261.953,368.439 261.953,368.439L259.616,366.877Z" style="fill:rgb(251,196,179);fill-rule:nonzero;"/>
                </g>
                <g transform="matrix(1.97305,0,0,1.96427,25.8685,19.2916)">
                    <path d="M262.934,353.81C262.507,353.14 261.871,352.556 261.281,352.097C259.897,353.341 258.798,354.345 258.561,354.584C258.118,355.029 256.518,355.671 255.074,356.316C256.251,357.847 258.385,358.979 260.177,358.498C260.332,357.925 260.501,357.276 260.901,357.072C261.224,356.908 262.633,356.113 264.163,355.233C263.705,354.802 263.256,354.316 262.934,353.81Z" style="fill:rgb(251,196,179);fill-rule:nonzero;"/>
                </g>
                <g transform="matrix(1.97305,0,0,1.96427,25.8685,19.2916)">
                    <path d="M278.495,344.659C278.495,344.659 275.913,344.196 273.886,343.884C273.843,345.411 273.661,347.57 273.079,349.44L276.89,350.403L278.495,344.659Z" style="fill:rgb(251,196,179);fill-rule:nonzero;"/>
                </g>
                <g transform="matrix(1.97305,0,0,1.96427,25.8685,19.2916)">
                    <path d="M271.609,343.604C270.722,343.627 269.76,344.96 268.488,345.846C267.652,346.429 263.935,349.712 261.281,352.097C261.871,352.556 262.507,353.14 262.934,353.81C263.256,354.316 263.705,354.802 264.163,355.233C265.822,354.277 267.624,353.221 268.339,352.752C269.712,351.852 272.2,349.218 272.2,349.218L273.079,349.44C273.661,347.57 273.843,345.411 273.886,343.884C272.825,343.72 271.914,343.597 271.609,343.604Z" style="fill:white;fill-rule:nonzero;"/>
                </g>
                <g transform="matrix(1.97305,0,0,1.96427,25.8685,19.2916)">
                    <path d="M260.851,352.485C260.851,352.485 262.079,353.713 262.679,354.227C263.278,354.74 263.843,355.417 263.843,355.417L264.491,355.044C264.491,355.044 263.702,353.799 262.934,353.071C262.165,352.343 261.514,351.888 261.514,351.888L260.851,352.485Z" style="fill:rgb(165,220,227);fill-rule:nonzero;"/>
                </g>
                <g transform="matrix(1.97305,0,0,1.96427,25.8685,19.2916)">
                    <path d="M263.359,350.24C263.359,350.24 264.077,351.872 264.491,352.686C264.905,353.499 265.244,354.607 265.244,354.607L265.987,354.174C265.987,354.174 265.59,352.349 265.204,351.233C264.819,350.117 264.287,349.419 264.287,349.419L263.359,350.24Z" style="fill:rgb(165,220,227);fill-rule:nonzero;"/>
                </g>
                <g transform="matrix(1.97305,0,0,1.96427,25.8685,19.2916)">
                    <path d="M265.162,348.806C265.162,348.806 266.966,349.705 267.584,350.403C268.201,351.102 269.008,352.254 269.008,352.254L269.624,351.729C269.624,351.729 269.015,350.273 268.287,349.51C267.559,348.747 265.987,347.93 265.987,347.93L265.162,348.806Z" style="fill:rgb(165,220,227);fill-rule:nonzero;"/>
                </g>
                <g transform="matrix(1.97305,0,0,1.96427,25.8685,19.2916)">
                    <path d="M268.302,345.984C268.302,345.984 269.399,347.292 269.871,348.105C270.342,348.918 271.033,350.403 271.033,350.403L271.348,350.092C271.348,350.092 271.1,348.408 270.378,347.144C269.656,345.879 269.103,345.368 269.103,345.368L268.302,345.984Z" style="fill:rgb(165,220,227);fill-rule:nonzero;"/>
                </g>
                <g transform="matrix(1.97305,0,0,1.96427,25.8685,19.2916)">
                    <path d="M271.885,343.617C271.885,343.617 272.14,345.65 272.183,346.492C272.226,347.335 272.2,349.218 272.2,349.218L272.871,349.388C272.871,349.388 273.033,347.035 273.079,345.965C273.124,344.895 273.079,343.884 273.079,343.884L271.885,343.617Z" style="fill:rgb(165,220,227);fill-rule:nonzero;"/>
                </g>
                <g transform="matrix(1.97305,0,0,1.96427,25.8685,19.2916)">
                    <path d="M274.537,343.374C274.537,343.374 274.489,346.188 274.16,348.09C273.83,349.992 273.436,350.739 273.436,350.739C273.436,350.739 277.395,352.097 279.887,352.631C282.379,353.164 284.889,353.676 284.889,353.676L286.777,350.363C286.777,350.363 283.289,344.827 282.416,344.726C281.543,344.623 274.537,343.374 274.537,343.374Z" style="fill:rgb(58,46,56);fill-rule:nonzero;"/>
                </g>
                <g transform="matrix(1.97305,0,0,1.96427,25.8685,19.2916)">
                    <path d="M288.496,347.058L277.304,354.056C277.304,354.056 280.325,354.39 281.387,355.938C282.447,357.488 282.456,360.563 282.456,360.563C282.456,360.563 289.8,357.275 290.872,356.178C291.944,355.08 292.802,349.459 292.802,349.459L288.496,347.058Z" style="fill:rgb(58,46,56);fill-rule:nonzero;"/>
                </g>
                <g transform="matrix(1.97305,0,0,1.96427,25.8685,19.2916)">
                    <path d="M255.556,356.103C255.556,356.103 252.604,356.996 251.547,357.223C250.491,357.448 250.149,358.643 251.261,359.547C252.371,360.451 253.581,360.83 255.547,360.358C256.338,360.168 257.2,360.028 258.061,360.009C258.965,359.988 259.898,359.475 260.092,358.791L260.288,358.107C260.288,358.107 259.099,357.956 258.146,357.877C256.071,357.703 255.556,356.103 255.556,356.103Z" style="fill:rgb(251,180,121);fill-rule:nonzero;"/>
                </g>
                <g transform="matrix(1.97305,0,0,1.96427,25.8685,19.2916)">
                    <path d="M254.305,356.474C254.305,356.474 257.217,355.398 257.703,355.127C258.189,354.854 258.411,355.991 257.577,356.835C256.742,357.679 255.558,357.975 255.558,357.975C255.558,357.975 254.976,357.679 254.305,356.474Z" style="fill:rgb(51,33,31);fill-rule:nonzero;"/>
                </g>
                <g transform="matrix(1.97305,0,0,1.96427,25.8685,19.2916)">
                    <path d="M253.461,356.717C253.461,356.717 254.307,358.181 254.761,358.824C255.216,359.467 256.506,359.272 255.815,358.096C255.125,356.919 254.779,356.297 254.779,356.297L253.461,356.717Z" style="fill:white;fill-rule:nonzero;"/>
                </g>
                <g transform="matrix(1.97305,0,0,1.96427,25.8685,19.2916)">
                    <path d="M259.484,365.388C259.484,365.388 256.428,365.808 255.35,365.865C254.271,365.922 253.746,367.048 254.701,368.115C255.656,369.183 256.792,369.747 258.808,369.59C259.618,369.526 260.491,369.522 261.345,369.639C262.241,369.761 263.243,369.399 263.543,368.755L263.843,368.11C263.843,368.11 262.692,367.774 261.763,367.547C259.743,367.05 259.484,365.388 259.484,365.388Z" style="fill:rgb(251,180,121);fill-rule:nonzero;"/>
                </g>
                <g transform="matrix(1.97305,0,0,1.96427,25.8685,19.2916)">
                    <path d="M258.19,365.559C258.19,365.559 261.234,364.954 261.758,364.762C262.28,364.569 262.321,365.727 261.364,366.429C260.407,367.131 259.191,367.237 259.191,367.237C259.191,367.237 258.663,366.854 258.19,365.559Z" style="fill:rgb(51,33,31);fill-rule:nonzero;"/>
                </g>
                <g transform="matrix(1.97305,0,0,1.96427,25.8685,19.2916)">
                    <path d="M257.318,365.666C257.318,365.666 257.924,367.244 258.271,367.951C258.62,368.657 259.924,368.668 259.428,367.397C258.931,366.127 258.687,365.458 258.687,365.458L257.318,365.666Z" style="fill:white;fill-rule:nonzero;"/>
                </g>
                <g transform="matrix(1.97305,0,0,1.96427,25.8685,19.2916)">
                    <path d="M278.235,332.604C278.235,332.604 279.092,333.582 280.457,334.203C281.822,334.823 282.947,335.072 282.947,335.072C282.947,335.072 286.518,329.038 285.44,327.688C284.362,326.337 283.181,325.896 282.086,326.579C280.991,327.263 278.235,332.604 278.235,332.604Z" style="fill:rgb(244,154,80);fill-rule:nonzero;"/>
                </g>
                <g transform="matrix(1.97305,0,0,1.96427,25.8685,19.2916)">
                    <path d="M280.547,344.426C280.869,345.536 281.939,349.51 287.637,351.107C291.806,352.276 293.108,352.326 294.271,350.631C294.271,346.889 295.573,333.692 293.192,330.996C290.722,328.197 287.678,327.476 287.678,327.476C287.678,327.476 285.564,325.624 282.915,329.613C281.143,332.281 281.418,335.49 281.939,339.076C282.462,342.678 281.069,342.416 280.547,344.426Z" style="fill:rgb(251,180,121);fill-rule:nonzero;"/>
                </g>
                <g transform="matrix(1.97305,0,0,1.96427,25.8685,19.2916)">
                    <path d="M290.872,338.551C290.872,338.551 291.657,344.059 291.605,347.139C291.514,352.602 292.439,355.175 292.54,356.149C292.716,357.851 290.157,360.358 291.238,360.124C291.974,359.964 292.206,359.964 292.975,359.005C293.521,359.901 293.915,360.897 294.491,361.567C295.986,363.305 297.807,362.13 297.251,360.306C296.972,359.39 295.172,357.042 295.102,356.547C295.031,356.051 295.41,347.832 295.543,346.483C295.828,343.581 295.556,337.788 295.556,337.788L290.872,338.551Z" style="fill:rgb(251,196,179);fill-rule:nonzero;"/>
                </g>
                <g transform="matrix(1.97305,0,0,1.96427,25.8685,19.2916)">
                    <path d="M290.135,340.465C290.135,340.465 291.112,340.647 292.876,340.465C295.638,340.179 296.497,339.738 296.497,339.738C296.497,339.738 296.531,334.877 295.084,332.41C293.637,329.943 291.836,329.662 290.399,331.374C288.963,333.086 290.135,340.465 290.135,340.465Z" style="fill:rgb(244,154,80);fill-rule:nonzero;"/>
                </g>
                <g transform="matrix(1.97305,0,0,1.96427,25.8685,19.2916)">
                    <path d="M284.67,327.677L284.321,330.135L284.213,330.901C284.213,330.901 283.641,333.058 284.305,333.32C284.909,333.561 286.716,331.945 287.459,331.27C289.019,329.853 289.229,329.216 289.229,329.216L288.313,324.865L284.67,327.677Z" style="fill:rgb(249,172,152);fill-rule:nonzero;"/>
                </g>
                <g transform="matrix(1.97305,0,0,1.96427,25.8685,19.2916)">
                    <path d="M286.761,319.861C285.305,318.818 281.92,318.568 280.79,322.091C279.604,325.784 283.046,330.255 284.787,329.428C285.762,328.965 287.793,327.361 288.321,325.419C288.916,323.233 287.892,320.672 286.761,319.861Z" style="fill:rgb(251,196,179);fill-rule:nonzero;"/>
                </g>
                <g transform="matrix(1.97305,0,0,1.96427,25.8685,19.2916)">
                    <path d="M280.531,323.26C281.136,323.842 282.043,324.612 283.771,324.14C286.61,323.364 287.357,323.866 287.785,324.083C288.27,324.327 288.321,325.419 288.321,325.419C288.321,325.419 289.72,323.986 289.171,321.816C288.828,320.463 286.911,317.826 284.354,318.14C281.797,318.452 280.355,320.19 280.081,321.667C279.943,322.406 280.258,322.997 280.531,323.26Z" style="fill:rgb(94,60,54);fill-rule:nonzero;"/>
                </g>
                <g transform="matrix(1.97305,0,0,1.96427,25.8685,19.2916)">
                    <path d="M284.089,329.58C284.089,329.58 283.668,330.311 283.606,331.735C283.546,333.16 284.213,335.058 284.213,335.058C284.213,335.058 286.468,333.347 287.647,332.082C289.144,330.478 290.135,328.521 290.135,328.521L288.978,328.021C288.978,328.021 288.795,330.136 284.617,332.724C284.211,331.349 284.407,329.528 284.407,329.528L284.089,329.58Z" style="fill:rgb(244,154,80);fill-rule:nonzero;"/>
                </g>
                <g transform="matrix(1.97305,0,0,1.96427,25.8685,19.2916)">
                    <path d="M256.941,331.431C256.941,331.431 255.618,336.182 255.618,337.531C255.618,338.847 255.021,339.439 255.829,340.038C256.637,340.638 257.277,342.054 260.198,344.837C261.91,346.468 262.299,346.483 262.593,347.72C262.887,348.95 264.346,350.545 265.718,351.107C267.692,351.916 267.763,351.045 267.763,350.104C267.763,349.162 265.964,346.929 265.438,346.051C264.911,345.172 262.938,342.031 262.379,340.956C261.821,339.881 260.157,338.551 260.157,338.551L261.696,331.045L256.941,331.431Z" style="fill:rgb(251,196,179);fill-rule:nonzero;"/>
                </g>
                <g transform="matrix(1.97305,0,0,1.96427,25.8685,19.2916)">
                    <path d="M262.612,333.561C263.09,332.391 263.553,330.726 263.629,329.859C263.839,327.458 265.252,322.405 260.325,322.19C257.342,322.061 257.069,325.59 256.021,330.393C255.84,331.219 255.718,331.998 255.618,332.756C257.599,333.925 260.367,334.256 262.612,333.561Z" style="fill:rgb(38,133,199);fill-rule:nonzero;"/>
                </g>
            </g>
        </g>
    </g>
</svg>
