<?xml version="1.0" encoding="UTF-8" standalone="no"?>
<!DOCTYPE svg PUBLIC "-//W3C//DTD SVG 1.1//EN" "http://www.w3.org/Graphics/SVG/1.1/DTD/svg11.dtd">
<svg width="100%" height="100%" viewBox="0 0 476 141" version="1.1" xmlns="http://www.w3.org/2000/svg" xmlns:xlink="http://www.w3.org/1999/xlink" xml:space="preserve" xmlns:serif="http://www.serif.com/" style="fill-rule:evenodd;clip-rule:evenodd;stroke-linejoin:round;stroke-miterlimit:2;">
    <g transform="matrix(1,0,0,1,-86.4986,-87.979)">
        <g transform="matrix(0.415311,0,0,0.415311,-203.816,-464.576)">
            <path id="BUFFED" d="M883.866,1489.21C898.351,1500.34 905.593,1510.94 905.593,1521.02L905.593,1639.11C905.593,1646.85 902.391,1653.86 895.985,1660.13C889.58,1666.4 882.508,1669.54 874.769,1669.54L699.029,1669.54L699.029,1330.46L874.769,1330.46C882.775,1330.46 889.914,1333.53 896.186,1339.67C902.457,1345.81 905.593,1352.88 905.593,1360.89L905.593,1455.77C905.593,1463.17 900.398,1472.19 890.007,1482.81C864.381,1477.16 848.524,1481.39 848.524,1481.39C866.627,1481.21 881.133,1487.18 883.775,1489.14C883.807,1489.17 883.837,1489.19 883.866,1489.21ZM789.501,1399.62L789.501,1459.77L823.528,1459.77L823.528,1391.71L742.484,1391.71C742.484,1391.71 762.978,1397.82 789.501,1399.62ZM823.528,1608.29L823.528,1521.02L789.501,1521.02L789.501,1608.29L823.528,1608.29ZM962.659,1608.29L1042.1,1608.29L1042.1,1330.46L1132.57,1330.46L1132.57,1639.11C1132.57,1646.85 1129.37,1653.86 1122.97,1660.13C1116.56,1666.4 1109.49,1669.54 1101.75,1669.54L950.429,1669.54C942.689,1669.54 935.684,1666.4 929.412,1660.13C923.14,1653.86 920.005,1646.85 920.005,1639.11L920.005,1330.46L1009.68,1330.46L1009.68,1600.38C983.153,1602.18 962.659,1608.29 962.659,1608.29ZM1237.46,1399.62L1237.46,1459.77L1290.7,1459.77L1290.7,1521.02L1237.46,1521.02L1237.46,1669.54L1146.99,1669.54L1146.99,1330.46L1279.89,1330.46L1294.3,1391.71L1190.44,1391.71C1190.44,1391.71 1210.93,1397.82 1237.46,1399.62ZM1399.18,1399.62L1399.18,1459.77L1452.43,1459.77L1452.43,1521.02L1399.18,1521.02L1399.18,1669.54L1308.71,1669.54L1308.71,1330.46L1441.62,1330.46L1456.03,1391.71L1352.17,1391.71C1352.17,1391.71 1372.66,1397.82 1399.18,1399.62ZM1560.91,1399.62L1560.91,1459.77L1614.56,1459.77L1614.56,1521.02L1560.91,1521.02L1560.91,1608.29L1616.56,1608.29L1601.75,1669.54L1470.44,1669.54L1470.44,1330.46L1601.75,1330.46L1616.56,1391.71L1513.9,1391.71C1513.9,1391.71 1534.39,1397.82 1560.91,1399.62ZM1843.54,1639.11C1843.54,1646.85 1840.34,1653.86 1833.93,1660.13C1827.53,1666.4 1820.45,1669.54 1812.71,1669.54L1630.97,1669.54L1630.97,1330.46L1812.71,1330.46C1820.45,1330.46 1827.53,1333.6 1833.93,1339.87C1840.34,1346.14 1843.54,1353.15 1843.54,1360.89L1843.54,1639.11ZM1720.64,1399.62L1720.64,1608.29L1753.07,1608.29L1753.07,1391.71L1673.62,1391.71C1673.62,1391.71 1694.12,1397.82 1720.64,1399.62Z" style="fill:rgb(42,36,28);"/>
        </g>
    </g>
</svg>
