<?xml version="1.0" encoding="UTF-8" standalone="no"?>
<!DOCTYPE svg PUBLIC "-//W3C//DTD SVG 1.1//EN" "http://www.w3.org/Graphics/SVG/1.1/DTD/svg11.dtd">
<svg width="100%" height="100%" viewBox="0 0 133 133" version="1.1" xmlns="http://www.w3.org/2000/svg" xmlns:xlink="http://www.w3.org/1999/xlink" xml:space="preserve" xmlns:serif="http://www.serif.com/" style="fill-rule:evenodd;clip-rule:evenodd;stroke-linejoin:round;stroke-miterlimit:2;">
    <g transform="matrix(1,0,0,1,-728.106,-1739.48)">
        <g transform="matrix(0.253583,0,0,0.243595,657.291,1699.03)">
            <path id="diet" d="M570.105,380.964C560.246,379.71 550.198,379.063 540,379.063C529.802,379.063 519.754,379.71 509.895,380.964L509.895,368.282C509.895,365.015 511.192,361.882 513.502,359.572C515.812,357.262 518.945,355.964 522.212,355.964L557.788,355.964C561.055,355.964 564.188,357.262 566.498,359.572C568.808,361.882 570.105,365.015 570.105,368.282L570.105,380.964ZM540,400.567C670.587,400.567 776.607,506.587 776.607,637.175L303.393,637.175C303.393,506.587 409.413,400.567 540,400.567ZM800.743,658.679L706.579,708.9L373.421,708.9L279.257,658.679L800.743,658.679ZM399.774,379.063C399.774,379.063 392.355,370.151 386.153,355.846C382.617,347.691 380.114,338.412 379.378,328.174C378.794,320.057 380.163,311.852 382.973,303.697C384.8,298.397 387.862,293.475 391.405,288.561C393.306,286.312 394.948,284.134 396.582,282.198C399.387,278.873 401.96,276.232 403.889,273.548C407.45,268.593 409.95,265.021 410.087,260.038C410.371,249.771 407.39,238.12 402.58,217.878C411.477,229.03 418.069,236.646 422.905,243.982C428.793,252.914 430.686,260.601 430.831,268.895C430.964,276.526 428.393,284.522 422.706,294.479C420.469,298.396 417.297,302.395 413.755,307.007C409.796,311.097 406.927,315.513 404.889,320.225C402.383,326.02 400.375,331.627 399.399,337.495C395.742,359.462 399.774,379.063 399.774,379.063ZM534.733,327.216C534.733,327.216 527.314,318.304 521.112,303.999C517.576,295.844 515.074,286.565 514.337,276.327C513.754,268.211 515.123,260.006 517.933,251.851C519.759,246.55 522.821,241.628 526.364,236.715C528.266,234.466 529.908,232.287 531.541,230.351C534.347,227.026 536.92,224.385 538.848,221.701C542.409,216.746 544.909,213.174 545.047,208.192C545.33,197.924 542.349,186.273 537.539,166.031C546.437,177.183 553.028,184.8 557.864,192.136C563.752,201.067 565.645,208.755 565.79,217.048C565.924,224.679 563.352,232.675 557.665,242.632C555.428,246.549 552.256,250.548 548.714,255.16C544.756,259.25 541.886,263.667 539.849,268.378C537.342,274.173 535.335,279.78 534.358,285.648C530.702,307.615 534.733,327.216 534.733,327.216ZM669.692,379.063C669.692,379.063 662.274,370.151 656.072,355.846C652.536,347.691 650.033,338.412 649.297,328.174C648.713,320.057 650.082,311.852 652.892,303.697C654.719,298.397 657.781,293.475 661.323,288.561C663.225,286.312 664.867,284.134 666.501,282.198C669.306,278.873 671.879,276.232 673.808,273.548C677.369,268.593 679.868,265.021 680.006,260.038C680.289,249.771 677.308,238.12 672.499,217.878C681.396,229.03 687.988,236.646 692.824,243.982C698.712,252.914 700.605,260.601 700.75,268.895C700.883,276.526 698.312,284.522 692.625,294.479C690.388,298.396 687.215,302.395 683.674,307.007C679.715,311.097 676.846,315.513 674.808,320.225C672.302,326.02 670.294,331.627 669.318,337.495C665.661,359.462 669.692,379.063 669.692,379.063Z" style="fill:white;"/>
        </g>
    </g>
</svg>
