<?xml version="1.0" encoding="UTF-8" standalone="no"?>
<!DOCTYPE svg PUBLIC "-//W3C//DTD SVG 1.1//EN" "http://www.w3.org/Graphics/SVG/1.1/DTD/svg11.dtd">
<svg width="100%" height="100%" viewBox="0 0 445 391" version="1.1" xmlns="http://www.w3.org/2000/svg" xmlns:xlink="http://www.w3.org/1999/xlink" xml:space="preserve" xmlns:serif="http://www.serif.com/" style="fill-rule:evenodd;clip-rule:evenodd;stroke-linejoin:round;stroke-miterlimit:2;">
    <g transform="matrix(1,0,0,1,-317.674,-344.584)">
        <g transform="matrix(0.54538,0,0,0.54538,-319.396,-262.29)">
            <g>
                <path d="M1264.47,1738.9C1173.96,1696.29 1117.13,1619.38 1233.78,1510.88C1233.78,1510.88 1383.51,1432.8 1489.6,1533.77C1418.33,1553.54 1395.6,1617.49 1418.16,1587.57C1440.72,1557.65 1500,1544.41 1500,1544.41C1589.16,1511.84 1641.85,1519.5 1681.12,1574.1C1681.12,1574.1 1696.79,1603.76 1697.5,1641.52C1698.2,1679.28 1708.07,1622.92 1697.5,1574.1L1706.54,1574.1C1728.71,1640.97 1793.52,1680.43 1775.69,1660.16C1758.07,1640.1 1712.73,1574.1 1712.73,1574.1C1712.73,1574.1 1706.98,1464.9 1722.31,1408.39C1722.31,1408.39 1735.34,1449.26 1735.84,1467.59C1735.74,1470.62 1735.61,1472.54 1735.58,1473C1735.57,1473.14 1735.57,1473.14 1735.58,1473C1735.6,1472.76 1735.65,1472.13 1735.75,1471.07C1735.84,1470.03 1735.87,1468.87 1735.84,1467.59C1736.39,1450.41 1736.04,1397.52 1712.64,1373.5C1697.82,1325.52 1684.4,1306.28 1674.25,1291C1714.87,1285.59 1722.88,1216.23 1710.62,1250.57C1698.36,1284.9 1669.62,1283.86 1669.62,1283.86C1618.86,1283.86 1629.39,1281.94 1611.19,1286.73C1592.99,1291.52 1540.31,1286.73 1526.9,1275.24C1513.49,1263.74 1497.2,1275.24 1491.46,1278.11C1485.71,1280.99 1445.48,1286.73 1450.27,1253.21C1452,1241.12 1454.47,1235.01 1456.93,1232.13C1470.9,1246.03 1500,1256.49 1500,1256.49L1465.59,1232.13C1465.59,1232.13 1465.36,1231.85 1464.94,1231.49C1462.02,1228.56 1450.51,1216.21 1452.18,1205.31C1454.1,1192.86 1489.39,1145.92 1500,1129.64C1510.61,1113.36 1549.89,1109.52 1578.62,1115.27C1607.36,1121.02 1674.41,1128.68 1722.31,1189.99C1774.04,1244.59 1787.44,1278.11 1787.44,1278.11C1787.44,1278.11 1847.79,1384.44 1856.41,1395.93C1865.04,1407.43 1910.06,1469 1923.47,1500C1936.88,1531 1961.78,1601.88 1961.78,1628.7C1961.78,1632.05 1962.04,1635.44 1962.51,1638.82C1962.51,1638.82 1960.87,1681.29 1952.54,1694.04C1944.2,1706.79 1957.46,1708.42 1967.01,1657.83C1972.3,1674.06 1980.05,1687.65 1982.63,1691.92C1986.69,1698.63 1975.19,1740.78 1950.29,1752.27C1925.38,1763.76 1876.53,1815.49 1804.69,1807.83C1801.88,1808.15 1799.08,1808.48 1796.28,1808.82C1796.28,1808.82 1731.8,1770.06 1715.88,1738.67C1699.96,1707.28 1728.93,1799.57 1775.26,1811.55C1659.02,1827.45 1544.96,1854.27 1431.88,1777.94C1431.88,1777.94 1396.35,1758.02 1379.19,1727.36C1362.44,1697.46 1386.84,1760.16 1408.53,1776.79C1372.8,1773.78 1331.19,1765.04 1292.74,1750.74C1362.01,1723.62 1396.65,1587.82 1369.06,1650.65C1341.47,1713.49 1264.47,1738.9 1264.47,1738.9ZM1461.84,1229.93C1463.18,1230.15 1464.28,1230.92 1464.94,1231.49C1465.35,1231.91 1465.59,1232.13 1465.59,1232.13C1465.59,1232.13 1463.96,1231.13 1461.84,1229.93ZM1909.1,1760.34C1909.1,1760.34 1840.43,1739.78 1820.2,1688.29C1799.97,1636.79 1823.88,1779.06 1909.1,1760.34ZM1400.3,1701.58L1389.02,1701.58C1389.02,1701.58 1412.07,1719.55 1453.76,1722.49C1462.1,1741.62 1539.1,1782.81 1571.46,1783.79C1544.49,1776.44 1470.92,1715.13 1459.64,1709.74C1449.34,1711.7 1400.3,1701.58 1400.3,1701.58Z" style="fill:rgb(42,36,28);"/>
            </g>
        </g>
    </g>
</svg>
