<?xml version="1.0" encoding="UTF-8" standalone="no"?>
<!DOCTYPE svg PUBLIC "-//W3C//DTD SVG 1.1//EN" "http://www.w3.org/Graphics/SVG/1.1/DTD/svg11.dtd">
<svg width="100%" height="100%" viewBox="0 0 442 442" version="1.1" xmlns="http://www.w3.org/2000/svg" xmlns:xlink="http://www.w3.org/1999/xlink" xml:space="preserve" xmlns:serif="http://www.serif.com/" style="fill-rule:evenodd;clip-rule:evenodd;stroke-linejoin:round;stroke-miterlimit:2;">
    <g transform="matrix(1,0,0,1,-319,-319)">
        <g transform="matrix(1.08867,0,0,1.17698,-47.8818,-134.685)">
            <path id="timetable" d="M643.467,385.464L704.718,385.464C725.861,385.464 743,402.604 743,423.746L743,722.718C743,743.861 725.861,761 704.718,761L375.282,761C354.139,761 337,743.861 337,722.718L337,423.746C337,402.604 354.139,385.464 375.282,385.464L436.486,385.464L436.486,422.023C436.486,423.202 437.443,424.159 438.623,424.159L460.624,424.159C461.804,424.159 462.76,423.202 462.76,422.023L462.76,385.464L617.193,385.464L617.193,422.023C617.193,423.202 618.15,424.159 619.33,424.159L641.331,424.159C642.51,424.159 643.467,423.202 643.467,422.023L643.467,385.464ZM371.885,473.517L371.885,722.718C371.885,724.594 373.406,726.115 375.282,726.115L704.718,726.115C706.594,726.115 708.115,724.594 708.115,722.718L708.115,473.517L371.885,473.517ZM532.154,648.505L532.154,691.915L475.922,691.915L475.922,648.505L532.154,648.505ZM460.229,581.574L460.229,624.984L403.997,624.984L403.997,581.574L460.229,581.574ZM604.078,514.643L604.078,558.053L547.846,558.053L547.846,514.643L604.078,514.643ZM460.229,514.643L460.229,558.053L403.997,558.053L403.997,514.643L460.229,514.643ZM604.078,581.574L604.078,624.984L547.846,624.984L547.846,581.574L604.078,581.574ZM676.003,514.643L676.003,558.053L619.771,558.053L619.771,514.643L676.003,514.643ZM676.003,581.574L676.003,624.984L619.771,624.984L619.771,581.574L676.003,581.574ZM460.229,648.505L460.229,691.915L403.997,691.915L403.997,648.505L460.229,648.505ZM532.154,514.643L532.154,558.053L475.922,558.053L475.922,514.643L532.154,514.643ZM532.154,581.574L532.154,624.984L475.922,624.984L475.922,581.574L532.154,581.574ZM676.003,648.505L676.003,691.915L619.771,691.915L619.771,648.505L676.003,648.505ZM604.078,648.505L604.078,691.915L547.846,691.915L547.846,648.505L604.078,648.505Z" style="fill:rgb(42,36,28);"/>
        </g>
    </g>
</svg>
